<?xml version="1.0" encoding="UTF-8"?>
<svg width="13px" height="13px" viewBox="0 0 13 13" version="1.1" xmlns="http://www.w3.org/2000/svg" xmlns:xlink="http://www.w3.org/1999/xlink">
    <!-- Generator: Sketch 46.2 (44496) - http://www.bohemiancoding.com/sketch -->
    <title>取消</title>
    <desc>Created with Sketch.</desc>
    <defs></defs>
    <g id="Page-1" stroke="none" stroke-width="1" fill="none" fill-rule="evenodd" fill-opacity="0.7">
        <g id="首页" transform="translate(-878.000000, -266.000000)" fill-rule="nonzero" fill="#FFFFFF">
            <g id="Group-3" transform="translate(530.000000, 247.000000)">
                <g id="取消" transform="translate(348.000000, 19.000000)">
                    <path d="M12.4534929,10.5570219 L8.19696908,6.32156999 L12.432421,2.0861181 C12.6852838,1.8332553 12.6852838,1.4118173 12.432421,1.1378826 L11.4841855,0.1896471 C11.2313227,-0.0632156999 10.8098847,-0.0632156999 10.53595,0.1896471 L6.32156999,4.44617089 L2.0861181,0.1896471 C1.8332553,-0.0632156999 1.4118173,-0.0632156999 1.1378826,0.1896471 L0.1896471,1.1378826 C-0.0632156999,1.3907454 -0.0632156999,1.8121834 0.1896471,2.0861181 L4.44617089,6.32156999 L0.1896471,10.5570219 C-0.0632156999,10.8098847 -0.0632156999,11.2313227 0.1896471,11.5052574 L1.1378826,12.4534929 C1.3907454,12.7063557 1.8121834,12.7063557 2.0861181,12.4534929 L6.32156999,8.19696908 L10.5570219,12.432421 C10.8098847,12.6852838 11.2313227,12.6852838 11.5052574,12.432421 L12.4534929,11.4841855 C12.7063557,11.2523946 12.7063557,10.8309566 12.4534929,10.5570219 Z" id="Shape"></path>
                </g>
            </g>
        </g>
    </g>
</svg>