<?xml version="1.0" encoding="UTF-8"?>
<svg width="17px" height="13px" viewBox="0 0 17 13" version="1.1" xmlns="http://www.w3.org/2000/svg" xmlns:xlink="http://www.w3.org/1999/xlink">
    <!-- Generator: Sketch 46.2 (44496) - http://www.bohemiancoding.com/sketch -->
    <title>邮箱 (3)</title>
    <desc>Created with Sketch.</desc>
    <defs></defs>
    <g id="Page-1" stroke="none" stroke-width="1" fill="none" fill-rule="evenodd" opacity="0.7">
        <g id="首页" transform="translate(-588.000000, -375.000000)" fill-rule="nonzero" fill="#FFFFFF">
            <g id="Group-3" transform="translate(530.000000, 247.000000)">
                <g id="邮箱-(3)" transform="translate(58.000000, 128.000000)">
                    <path d="M15.9374976,13 L1.06250243,13 C0.475883941,13 0,12.5147662 0,11.9166667 L2.70404564e-16,1.08331348 C2.70404564e-16,0.485233754 0.475883941,0 1.06250243,0 L15.9374976,0 C16.5240966,0 17,0.485233754 17,1.08331348 L17,11.9166667 C17.0000195,12.5147663 16.5240966,13 15.9374976,13 L15.9374976,13 Z M14.7463273,2.29714235 C14.5395203,2.08554621 14.2026436,2.08554621 13.9951356,2.29714235 L12.1537529,4.15417743 L9.56252193,6.79621077 L9.56252193,6.78987758 C9.2761348,7.0684388 8.89359733,7.24479539 8.46682055,7.24479539 C8.06905634,7.24479539 7.71697231,7.0811846 7.43751706,6.83571879 L7.43751706,6.86391043 L3.95879371,3.31769965 L3.98439876,3.30147953 L3.00422191,2.29716221 C2.79667497,2.08556608 2.46049918,2.08556608 2.2529912,2.29716221 C2.04546374,2.50875835 2.04546374,2.85150519 2.2529912,3.06310134 L5.61412605,6.50919209 L2.2529912,9.93616413 C2.04546374,10.1477603 2.04546374,10.4905865 2.2529912,10.7021628 C2.46049918,10.9137391 2.79735648,10.9137391 3.00422191,10.7021628 L6.36327331,7.27789083 L7.24175041,8.17789907 C7.28532769,8.22866389 7.33098839,8.27591466 7.38079654,8.32104114 L7.43751708,8.37889356 L7.43751708,8.36829192 C7.71144243,8.59404343 8.05455009,8.73436635 8.43360216,8.73436635 C8.87496311,8.73436635 9.27407085,8.5509817 9.56254141,8.25548565 L9.56254141,8.29142007 L10.5855751,7.25960597 L13.9619366,10.702143 C14.1694446,10.9137193 14.5063409,10.9137193 14.7131674,10.702143 C14.9206753,10.4905667 14.9206753,10.1477404 14.7131674,9.93614428 L11.3409532,6.49785588 L14.7463468,3.06306165 C14.9538743,2.85148532 14.9538743,2.5087385 14.7463273,2.29714235 L14.7463273,2.29714235 Z" id="Shape"></path>
                </g>
            </g>
        </g>
    </g>
</svg>