<?xml version="1.0" encoding="UTF-8"?>
<svg width="13px" height="14px" viewBox="0 0 13 14" version="1.1" xmlns="http://www.w3.org/2000/svg" xmlns:xlink="http://www.w3.org/1999/xlink">
    <!-- Generator: Sketch 46.2 (44496) - http://www.bohemiancoding.com/sketch -->
    <title>Shape</title>
    <desc>Created with Sketch.</desc>
    <defs></defs>
    <g id="Page-1" stroke="none" stroke-width="1" fill="none" fill-rule="evenodd" opacity="0.7">
        <g id="首页" transform="translate(-589.000000, -494.000000)" fill-rule="nonzero" fill="#FFFFFF">
            <g id="Group-3" transform="translate(530.000000, 247.000000)">
                <g id="Field-Copy" transform="translate(45.000000, 231.000000)">
                    <path d="M26.0070628,18.9450565 C25.9938526,18.5194417 25.6500104,18.1173387 25.243213,18.0446476 C25.243213,18.0446476 23.666099,17.7891894 22.7811328,17.4665523 C21.6762513,17.063741 20.5828517,16.1782829 20.5828517,16.1782829 C20.24182,15.9287989 19.7187303,15.9442733 19.4024358,16.2139741 C19.4024358,16.2139741 18.6283966,17.014146 17.1841365,17.481226 C15.8498415,18.0305898 14.7834185,18.0868364 14.7834185,18.0868364 C14.3809794,18.1405734 14.0345373,18.521197 14.0267374,18.9467195 C14.0267374,18.9467195 13.9725439,21.13432 14.0409245,23.0542522 C14.0667589,26.4889495 18.0355586,29.884522 20.0410964,29.884522 C22.015194,29.884522 25.4267588,27.5188044 25.9633893,23.104186 C26.0960028,20.4832257 26.0070628,18.9450565 26.0070628,18.9450565 Z M22.9277079,21.9582193 L19.5154668,25.4967721 C19.370079,25.6475126 19.1233976,25.6649116 18.9562181,25.5287371 L17.1743227,24.0780097 C16.8469671,23.8115116 16.8128219,23.347665 17.1025005,23.0372381 C17.3901652,22.728936 17.8841593,22.6881637 18.2181125,22.9559398 L19.0452933,23.6192443 L21.888051,20.8753512 C22.1841619,20.5895293 22.6549216,20.597613 22.943969,20.8802476 C22.9398361,20.8758285 22.9386939,20.8698081 22.9344258,20.8654353 L22.9585168,20.8901635 C22.9542486,20.8857906 22.9482822,20.8844819 22.943969,20.8802476 C23.2219402,21.1795422 23.2180778,21.6571078 22.9277079,21.9582193 Z" id="Shape"></path>
                </g>
            </g>
        </g>
    </g>
</svg>