<?xml version="1.0" encoding="UTF-8"?>
<svg width="14px" height="18px" viewBox="0 0 14 18" version="1.1" xmlns="http://www.w3.org/2000/svg" xmlns:xlink="http://www.w3.org/1999/xlink">
    <!-- Generator: Sketch 46.2 (44496) - http://www.bohemiancoding.com/sketch -->
    <title>Shape</title>
    <desc>Created with Sketch.</desc>
    <defs></defs>
    <g id="Page-1" stroke="none" stroke-width="1" fill="none" fill-rule="evenodd" opacity="0.7">
        <g id="首页" transform="translate(-589.000000, -431.000000)" fill-rule="nonzero" fill="#FFFFFF">
            <g id="Group-3" transform="translate(530.000000, 247.000000)">
                <g id="密码-(7)" transform="translate(59.000000, 184.000000)">
                    <path d="M11.8458475,18 L2.15415253,18 C0.96557514,18 0,16.9506043 0,15.6585399 L0,8.63964174 C0,7.34940474 0.965594664,6.3000492 2.15415253,6.3000492 L2.7130053,6.3000492 C2.65576116,6.00820008 2.62501098,5.70763544 2.62501098,5.40000201 L2.62501098,4.49999498 C2.62501098,2.01442767 4.58351428,0 7.00000976,0 C9.41564619,0 11.3750476,2.01442767 11.3750476,4.49999498 L11.3750476,5.39998193 C11.3750476,5.70761536 11.3442584,6.00818 11.2870142,6.30002912 L11.8458475,6.30002912 C13.0335658,6.30002912 14,7.34938466 14,8.63962166 L14,15.6585399 C14,16.9506043 13.0335658,18 11.8458475,18 L11.8458475,18 Z M6.08855677,12.7243918 L6.08855677,14.7577839 C6.08855677,15.250361 6.49737088,15.6521739 7.00049853,15.6521739 C7.50362618,15.6521739 7.91241994,15.250341 7.91241994,14.7577839 L7.91241994,12.7243918 C8.46542084,12.4169353 8.84210526,11.8439517 8.84210526,11.1801043 C8.84210526,10.1913379 8.01749764,9.39130435 7.00047818,9.39130435 C5.9825634,9.39130435 5.15789474,10.1913379 5.15789474,11.1801043 C5.15791508,11.8439318 5.53549483,12.4169153 6.08855677,12.7243918 L6.08855677,12.7243918 Z M9.57894737,4.38259612 C9.57894737,2.82624955 8.42474134,1.56521739 7.00003836,1.56521739 C5.57543129,1.56521739 4.42105263,2.82624955 4.42105263,4.38259612 L4.42105263,6.26086957 L9.57894737,6.26086957 L9.57894737,4.38259612 Z" id="Shape"></path>
                </g>
            </g>
        </g>
    </g>
</svg>