<?xml version="1.0" encoding="UTF-8"?>
<svg width="21px" height="21px" viewBox="0 0 21 21" version="1.1" xmlns="http://www.w3.org/2000/svg" xmlns:xlink="http://www.w3.org/1999/xlink">
    <!-- Generator: Sketch 46.2 (44496) - http://www.bohemiancoding.com/sketch -->
    <title>证件_slice</title>
    <desc>Created with Sketch.</desc>
    <defs></defs>
    <g id="Page-1" stroke="none" stroke-width="1" fill="none" fill-rule="evenodd" opacity="0.7">
        <g id="Artboard" transform="translate(-14.000000, -185.000000)" fill-rule="nonzero" fill="#FFFFFF">
            <g id="证件" transform="translate(16.000000, 189.000000)">
                <path d="M13.2826612,3.1880132 L12.2193915,3.1880132 C11.9258633,3.1880132 11.6877566,3.42613911 11.6877566,3.71969087 L11.6877566,4.78304621 C11.6877566,5.07659797 11.9258633,5.31472388 12.2193915,5.31472388 L13.2826612,5.31472388 C13.5761893,5.31472388 13.8142961,5.07659797 13.8142961,4.78304621 L13.8142961,3.71969087 C13.8122434,3.42613911 13.5741367,3.1880132 13.2826612,3.1880132 Z M14.8755132,0 L2.12448684,0 C0.950374306,0 0,0.952503623 0,2.12465787 L0,10.6253421 C0,11.7995492 0.95242695,12.75 2.12448684,12.75 L14.8755132,12.75 C16.0496257,12.75 17,11.7974964 17,10.6253421 L17,2.12465787 C17,0.950450813 16.0496257,0 14.8755132,0 Z M9.03163487,10.6273949 L2.65612171,10.6273949 C2.36259358,10.6273949 2.12448684,10.389269 2.12448684,10.0957173 C2.12448684,9.80216551 2.36259358,9.56403961 2.65612171,9.56403961 L9.03163487,9.56403961 C9.325163,9.56403961 9.56326974,9.80216551 9.56326974,10.0957173 C9.56326974,10.389269 9.325163,10.6273949 9.03163487,10.6273949 Z M9.03163487,8.50068427 L2.65612171,8.50068427 C2.36259358,8.50068427 2.12448684,8.26255836 2.12448684,7.9690066 C2.12448684,7.67545484 2.36259358,7.43732893 2.65612171,7.43732893 L9.03163487,7.43732893 C9.325163,7.43732893 9.56326974,7.67545484 9.56326974,7.9690066 C9.56326974,8.26255836 9.325163,8.50068427 9.03163487,8.50068427 Z M14.8755132,5.31267107 C14.8755132,5.89977459 14.3992997,6.3760264 13.8122434,6.3760264 L11.6877566,6.3760264 C11.1007003,6.3760264 10.6244868,5.89977459 10.6244868,5.31267107 L10.6244868,3.1880132 C10.6244868,2.60090968 11.1007003,2.12465787 11.6877566,2.12465787 L13.8122434,2.12465787 C14.3992997,2.12465787 14.8755132,2.60090968 14.8755132,3.1880132 L14.8755132,5.31267107 Z" id="Shape"></path>
            </g>
        </g>
    </g>
</svg>