<?xml version="1.0" encoding="UTF-8"?>
<svg width="33px" height="33px" viewBox="0 0 33 33" version="1.1" xmlns="http://www.w3.org/2000/svg" xmlns:xlink="http://www.w3.org/1999/xlink">
    <!-- Generator: Sketch 46.2 (44496) - http://www.bohemiancoding.com/sketch -->
    <title>Facebook_White</title>
    <desc>Created with Sketch.</desc>
    <defs></defs>
    <g id="Page-1" stroke="none" stroke-width="1" fill="none" fill-rule="evenodd">
        <g id="首页" transform="translate(-138.000000, -1070.000000)" fill="#677897">
            <g id="presale-proces" transform="translate(136.000000, 900.000000)">
                <g id="Socials-Copy" transform="translate(2.000000, 170.000000)">
                    <g id="Facebook">
                        <path d="M0,16.5 C0,7.38730118 7.38730118,0 16.5,0 C25.6126988,0 33,7.38730118 33,16.5 C33,25.6126988 25.6126988,33 16.5,33 C7.38730118,33 0,25.6126988 0,16.5 Z M17.6698191,25.6516402 L17.6698191,16.6747691 L20.1478282,16.6747691 L20.4762179,13.5812896 L17.6698191,13.5812896 L17.6740292,12.0329733 C17.6740292,11.2261462 17.7506886,10.7938298 18.9095253,10.7938298 L20.4586757,10.7938298 L20.4586757,7.7 L17.9803158,7.7 C15.003407,7.7 13.9556123,9.20067038 13.9556123,11.7243261 L13.9556123,13.5816399 L12.1,13.5816399 L12.1,16.6751194 L13.9556123,16.6751194 L13.9556123,25.6516402 L17.6698191,25.6516402 Z" id="Combined-Shape"></path>
                    </g>
                </g>
            </g>
        </g>
    </g>
</svg>