<?xml version="1.0" encoding="UTF-8"?>
<svg width="20px" height="20px" viewBox="0 0 20 20" version="1.1" xmlns="http://www.w3.org/2000/svg" xmlns:xlink="http://www.w3.org/1999/xlink">
    <!-- Generator: Sketch 46.2 (44496) - http://www.bohemiancoding.com/sketch -->
    <title>上传_slice</title>
    <desc>Created with Sketch.</desc>
    <defs></defs>
    <g id="Page-1" stroke="none" stroke-width="1" fill="none" fill-rule="evenodd" opacity="0.7">
        <g id="Artboard" transform="translate(-13.000000, -250.000000)" fill-rule="nonzero" fill="#FFFFFF">
            <g id="上传" transform="translate(15.000000, 255.000000)">
                <path d="M13.5317745,4.43141953 C13.5317745,4.43141953 13.4197749,0.824536209 10.4175018,0.107633199 C7.41522856,-0.60926981 5.96837746,2.48649857 5.93866329,2.57485323 C5.90894913,2.66320789 5.76152118,2.62294501 5.76152118,2.62294501 C5.52152218,2.40038073 4.46324088,1.8892658 3.35124552,2.54465607 C2.24039301,3.20004634 2.64267705,4.44484049 2.64267705,4.44484049 C2.64267705,4.44484049 0.995826773,4.31398611 0.151258868,6.802456 C-0.692166185,9.29316271 2.26667861,9.99888159 2.26667861,9.99888159 L7.23351504,9.99888159 L7.23351504,7.34936017 L6.23923347,7.34936017 L6.15237669,7.34936017 L6.0849484,7.34936017 L6.0849484,7.34488651 C6.02780578,7.34488651 5.98209169,7.30014998 5.98209169,7.24311089 C5.98209169,7.20955849 6.00037732,7.18047974 6.02780578,7.16146671 L8.06322586,5.06667835 C8.09179717,5.03536278 8.131797,5.01411292 8.17865395,5.01411292 C8.22665375,5.01411292 8.26893929,5.0375996 8.2975106,5.07227042 L10.3180736,7.15028258 C10.3215022,7.1525194 10.3249307,7.15587464 10.3283593,7.15922988 L10.3477878,7.17936133 L10.3409306,7.17936133 C10.3512163,7.19725594 10.3580734,7.21291373 10.3580734,7.23416358 C10.3580734,7.29679474 10.3066451,7.34824175 10.2415025,7.34824175 C10.2392168,7.34824175 10.2392168,7.34600493 10.2369311,7.34600493 L10.2369311,7.35047858 L9.1420785,7.35047858 L9.1420785,10 L13.6506311,10 C13.6506311,10 15.8003364,9.47322727 15.9900499,7.30126839 C16.1820491,5.12930951 13.5317745,4.43141953 13.5317745,4.43141953 Z" id="Shape"></path>
            </g>
        </g>
    </g>
</svg>