<?xml version="1.0" encoding="UTF-8"?>
<svg width="33px" height="33px" viewBox="0 0 33 33" version="1.1" xmlns="http://www.w3.org/2000/svg" xmlns:xlink="http://www.w3.org/1999/xlink">
    <!-- Generator: Sketch 46.2 (44496) - http://www.bohemiancoding.com/sketch -->
    <title>Combined Shape</title>
    <desc>Created with Sketch.</desc>
    <defs></defs>
    <g id="Page-1" stroke="none" stroke-width="1" fill="none" fill-rule="evenodd">
        <g id="首页" transform="translate(-194.000000, -1070.000000)" fill="#677897">
            <g id="presale-proces" transform="translate(136.000000, 900.000000)">
                <g id="Socials-Copy" transform="translate(2.000000, 170.000000)">
                    <g id="Behance" transform="translate(56.000000, 0.000000)">
                        <path d="M0,16.5 C0,7.38730118 7.27669816,0 16.2529612,0 C25.2292243,0 32.5059225,7.38730118 32.5059225,16.5 C32.5059225,25.6126988 25.2292243,33 16.2529612,33 C7.27669816,33 0,25.6126988 0,16.5 Z M11.6467859,11.7096774 C11.1101409,11.7096774 10.6764706,11.2330274 10.6764706,10.6445961 C10.6764706,10.0566745 11.1106261,9.58064516 11.6467859,9.58064516 C12.1834309,9.58064516 12.6176471,10.0572952 12.6176471,10.6445961 C12.6176471,11.231897 12.1829458,11.7096774 11.6467859,11.7096774 Z M17.4708611,9.58064516 C18.0075062,9.58064516 18.4411765,10.0572952 18.4411765,10.6445961 C18.4411765,11.2330274 18.0075062,11.7096774 17.4708611,11.7096774 C16.9342161,11.7096774 16.5,11.2330274 16.5,10.6445961 C16.5,10.0566745 16.9347215,9.58064516 17.4708611,9.58064516 Z M19.9064726,13.4042797 C20.7573745,13.4042797 21.5680793,13.580196 22.3064467,13.8968903 C22.3119184,13.7823785 22.3235294,13.6723652 22.3235294,13.5571786 C22.3235294,9.59687546 19.0638428,6.38709677 15.0435791,6.38709677 C11.0244141,6.38709677 7.76470588,9.59627566 7.76470588,13.5571786 C7.76470588,15.0466065 8.22684254,16.4318192 9.01766429,17.5783115 L8.68570485,21.2903226 L11.5538689,19.8488287 C12.2641673,20.2326756 13.0494313,20.4918891 13.8782959,20.6242449 C13.8160185,20.2742867 13.777911,19.9160063 13.777911,19.5488288 C13.7784926,16.1610845 16.5275951,13.4048795 19.9064726,13.4048795 L19.9064726,13.4042797 Z M22.3224759,18.0967742 C21.7878076,18.0967742 21.3529412,17.6203069 21.3529412,17.0323166 C21.3529412,16.44418 21.7878076,15.9677419 22.3224759,15.9677419 C22.859838,15.9677419 23.2941176,16.4449701 23.2941176,17.0323166 C23.2941176,17.6196338 22.859838,18.0967742 22.3224759,18.0967742 Z M18.4415368,18.0967742 C17.9045111,18.0967742 17.4705882,17.6203069 17.4705882,17.0323166 C17.4705882,16.44418 17.9045111,15.9677419 18.4415368,15.9677419 C18.9778418,15.9677419 19.4117647,16.4449701 19.4117647,17.0323166 C19.4117647,17.6196338 18.9764806,18.0967742 18.4415368,18.0967742 Z M25.2347305,18.9605126 C25.2347305,16.1311289 22.8448896,13.8387097 19.8976329,13.8387097 C16.948727,13.8387097 14.5588235,16.1317895 14.5588235,18.9605126 C14.5588235,21.7892356 16.948727,24.0822918 19.8976329,24.0822918 C20.8237299,24.0822918 21.6953629,23.8539369 22.4558759,23.4548348 L24.5597859,24.483871 L24.3161278,21.8314388 C24.8970494,21.012593 25.2352941,20.0233538 25.2352941,18.9605126 L25.2347305,18.9605126 Z" id="Combined-Shape"></path>
                    </g>
                </g>
            </g>
        </g>
    </g>
</svg>