<?xml version="1.0" encoding="UTF-8"?>
<svg width="21px" height="21px" viewBox="0 0 21 21" version="1.1" xmlns="http://www.w3.org/2000/svg" xmlns:xlink="http://www.w3.org/1999/xlink">
    <!-- Generator: Sketch 46.2 (44496) - http://www.bohemiancoding.com/sketch -->
    <title>国家（pitch_on）_slice</title>
    <desc>Created with Sketch.</desc>
    <defs></defs>
    <g id="Page-1" stroke="none" stroke-width="1" fill="none" fill-rule="evenodd" opacity="0.7">
        <g id="Artboard" transform="translate(-14.000000, -244.000000)" fill-rule="nonzero" fill="#FFFFFF">
            <g id="国家（pitch-on）" transform="translate(17.000000, 247.000000)">
                <path d="M12.8035982,12.8067101 C12.9235382,12.6865298 13.0434783,12.5588383 13.155922,12.4311467 C14.3028486,11.1091637 15,9.38908363 15,7.49624437 C15,3.92088132 12.5037481,0.923885829 9.16041979,0.172759139 C9.14542729,0.172759139 9.13793103,0.165247872 9.12293853,0.165247872 C9.07046477,0.150225338 9.017991,0.142714071 8.96551724,0.135202804 C8.95052474,0.135202804 8.92803598,0.127691537 8.91304348,0.127691537 C8.86806597,0.12018027 8.82308846,0.112669004 8.77061469,0.105157737 C8.74812594,0.105157737 8.72563718,0.0976464697 8.70314843,0.0976464697 C8.65817091,0.0901352028 8.6131934,0.0826239359 8.57571214,0.075112669 C8.55322339,0.075112669 8.53073463,0.0676014021 8.50074963,0.0676014021 C8.45577211,0.0600901352 8.41829085,0.0600901352 8.37331334,0.0525788683 C8.35082459,0.0525788683 8.32083958,0.0450676014 8.29835082,0.0450676014 C8.26086957,0.0375563345 8.21589205,0.0375563345 8.17841079,0.0300450676 C8.15592204,0.0300450676 8.12593703,0.0225338007 8.10344828,0.0225338007 C8.05847076,0.0225338007 8.02098951,0.0150225338 7.97601199,0.0150225338 C7.95352324,0.0150225338 7.92353823,0.0150225338 7.90104948,0.0075112669 C7.85607196,0.0075112669 7.81109445,0 7.76611694,0 L7.49625187,0 C7.4137931,0 7.33133433,0 7.24887556,0.0075112669 L7.1814093,0.0075112669 C7.10644678,0.0075112669 7.03148426,0.0150225338 6.95652174,0.0225338007 L6.93403298,0.0225338007 C6.85157421,0.0300450676 6.76911544,0.0375563345 6.67916042,0.0450676014 C6.66416792,0.0450676014 6.64917541,0.0450676014 6.63418291,0.0525788683 C6.55172414,0.0600901352 6.47676162,0.075112669 6.39430285,0.0826239359 L6.3868066,0.0826239359 C6.29685157,0.0976464697 6.20689655,0.112669004 6.12443778,0.127691537 L6.11694153,0.127691537 C2.8035982,0.728592889 0.254872564,3.53029544 0.0149925037,6.97045568 L0.0149925037,6.99298948 C0.00749625187,7.06059089 0.00749625187,7.12819229 0.00749625187,7.20330496 L0.00749625187,7.26339509 C0.00749625187,7.33850776 0,7.4211317 0,7.49624437 C0,7.58637957 0,7.67651477 0.00749625187,7.75913871 L0.00749625187,7.81922884 C0.0149925037,7.90936405 0.0149925037,7.99198798 0.0224887556,8.08212318 L0.0224887556,8.11216825 C0.0299850075,8.19479219 0.0374812594,8.26990486 0.0449775112,8.35252879 C0.0449775112,8.37506259 0.0524737631,8.39008513 0.0524737631,8.41261893 C0.059970015,8.49524286 0.0749625187,8.58537807 0.0899550225,8.668002 C0.0899550225,8.68302454 0.0974512744,8.69804707 0.0974512744,8.7130696 C0.112443778,8.78818227 0.11994003,8.86329494 0.134932534,8.93840761 C0.134932534,8.95343015 0.142428786,8.96845268 0.142428786,8.98347521 C0.157421289,9.06609915 0.179910045,9.14872308 0.194902549,9.23134702 C0.194902549,9.24636955 0.202398801,9.26139209 0.202398801,9.27641462 C0.224887556,9.35152729 0.23988006,9.43415123 0.262368816,9.5092639 C0.262368816,9.51677516 0.269865067,9.52428643 0.269865067,9.5317977 C0.292353823,9.61442163 0.322338831,9.69704557 0.344827586,9.7796695 C0.352323838,9.79469204 0.352323838,9.80971457 0.35982009,9.81722584 C0.412293853,9.98247371 0.472263868,10.1477216 0.539730135,10.3129695 C0.547226387,10.3204807 0.547226387,10.3355033 0.554722639,10.3430145 C0.622188906,10.5082624 0.697151424,10.6735103 0.779610195,10.8312469 C0.779610195,10.8387581 0.787106447,10.8462694 0.787106447,10.8462694 C1.94152924,13.1597396 4.25037481,14.7821733 6.95652174,14.9774662 L6.97151424,14.9774662 C7.04647676,14.9849775 7.12143928,14.9849775 7.18890555,14.9924887 L7.24137931,14.9924887 C7.32383808,14.9924887 7.3988006,15 7.48125937,15 C9.1904048,15 10.7721139,14.4216324 12.0314843,13.4601903 C12.0914543,13.4151227 12.1514243,13.3625438 12.2113943,13.3174762 C12.2338831,13.3024537 12.2488756,13.2874311 12.2713643,13.2724086 C12.3313343,13.227341 12.3838081,13.1747621 12.4362819,13.1296945 C12.5712144,13.0245368 12.6836582,12.9193791 12.8035982,12.8067101 C12.7961019,12.8067101 12.7961019,12.8067101 12.8035982,12.8067101 L12.8035982,12.8067101 Z M14.2428786,7.6014021 C13.5757121,7.72158237 12.856072,7.87931898 12.7886057,8.05207812 C12.6686657,8.36755133 12.9235382,8.39008513 12.946027,8.6454682 C12.9685157,8.90085128 12.0389805,9.5317977 12.0389805,9.74962444 C12.0389805,9.96745118 12.2338831,10.4631948 12.2338831,10.7411117 C12.2338831,11.0190285 11.9790105,11.116675 11.8965517,11.3945919 C11.814093,11.6725088 11.5817091,11.6725088 11.3418291,11.9504256 C11.101949,12.2283425 10.8845577,12.3635453 10.7121439,12.325989 C10.5322339,12.2884326 10.5322339,12.0480721 10.3973013,11.6574862 C10.2623688,11.2593891 10.2173913,10.5307962 10.3148426,10.2378568 C10.4122939,9.94491738 10.2548726,9.82473711 10.0974513,9.6219329 C9.94002999,9.42663996 10.1574213,9.24636955 10.0974513,9.03605408 C10.0374813,8.82573861 9.7826087,8.96845268 9.38530735,9.02854281 C8.988006,9.08863295 8.5982009,8.84827241 8.26086957,8.27741612 C7.92353823,7.70655984 8.77061469,6.93289935 8.8155922,6.73760641 C8.85307346,6.54231347 8.75562219,6.06910366 8.8155922,5.80620931 C8.87556222,5.55082624 9.27286357,5.4682023 9.22788606,5.25037556 C9.1904048,5.03254882 9.32533733,4.55933901 9.34782609,4.3790686 C9.37031484,4.1987982 9.96251874,4.06359539 10.0974513,4.04106159 C10.2323838,4.01852779 10.2923538,3.60540811 10.3898051,3.44767151 C10.4497751,3.3575363 11.4692654,3.04957436 12.3313343,2.80170255 C13.5157421,4.01852779 14.2428786,5.67100651 14.2428786,7.49624437 L14.2428786,7.6014021 L14.2428786,7.6014021 Z M3.68065967,1.92288433 C3.98050975,2.72658988 4.34032984,3.57536304 4.52773613,3.62043065 C4.88005997,3.70305458 5.98950525,3.99599399 6.1844078,4.21382073 C6.37931034,4.43164747 6.64167916,4.70956435 6.58170915,4.92739109 C6.52173913,5.14521783 5.55472264,5.49824737 5.27736132,5.77616425 C5,6.05408112 4.66266867,6.86529795 4.7826087,7.09814722 C4.90254873,7.33850776 4.28785607,7.72909364 4.54272864,8.00701052 C4.7976012,8.28492739 5.09745127,8.48022033 5.44977511,8.4201302 C5.80209895,8.36004006 6.01949025,8.5778668 6.28185907,8.7130696 C6.53673163,8.84827241 6.69415292,8.7130696 6.7916042,8.83324987 C6.88905547,8.95343015 6.69415292,9.40410616 6.94902549,9.46419629 C7.20389805,9.52428643 7.69865067,9.32899349 7.95352324,9.6219329 C8.2083958,9.91487231 8.23088456,10.6134201 7.8185907,10.7861793 C7.40629685,10.9664497 6.97151424,11.7175764 6.88905547,12.0480721 C6.8065967,12.3860791 5.89955022,13.0545819 5.82458771,13.3550325 C5.80209895,13.4451678 5.73463268,13.6930396 5.65217391,13.985979 C5.47226387,13.9334001 5.29235382,13.87331 5.11994003,13.8132198 C5.23238381,13.4977466 5.30734633,13.2423635 5.29235382,13.1597396 C5.23238381,12.9043565 5.26986507,12.4687031 5.42728636,12.130696 C5.58470765,11.792689 5.56221889,11.4396595 5.48725637,11.1842764 C5.4047976,10.9288933 5.07496252,10.7260891 5.05247376,10.5307962 C5.02998501,10.3355033 4.67766117,10.2528793 4.77511244,9.69704557 C4.87256372,9.14121182 4.89505247,8.76564847 4.73763118,8.60791187 C4.5802099,8.45017526 4.07046477,7.97696545 3.83058471,7.97696545 C3.59070465,7.97696545 3.11844078,7.93940911 3.05847076,7.75913871 C2.99850075,7.5788683 2.68365817,6.67000501 2.40629685,6.59489234 C2.12893553,6.5122684 1.87406297,6.557336 1.73913043,6.12168252 C1.68665667,5.95643465 1.37181409,5.79869805 0.997001499,5.67100651 C1.42428786,4.13870806 2.39130435,2.81672509 3.68065967,1.92288433 Z" id="Shape"></path>
            </g>
        </g>
    </g>
</svg>