<?xml version="1.0" encoding="UTF-8"?>
<svg width="21px" height="20px" viewBox="0 0 21 20" version="1.1" xmlns="http://www.w3.org/2000/svg" xmlns:xlink="http://www.w3.org/1999/xlink">
    <!-- Generator: Sketch 46.2 (44496) - http://www.bohemiancoding.com/sketch -->
    <title>用户_slice</title>
    <desc>Created with Sketch.</desc>
    <defs></defs>
    <g id="Page-1" stroke="none" stroke-width="1" fill="none" fill-rule="evenodd" opacity="0.7">
        <g id="Artboard" transform="translate(-57.000000, -125.000000)" fill-rule="nonzero" fill="#FFFFFF">
            <g id="用户" transform="translate(60.000000, 127.000000)">
                <path d="M2,5 C2,7.76142375 4.23857625,10 7,10 C9.76142375,10 12,7.76142375 12,5 C12,2.23857625 9.76142375,1.69088438e-16 7,0 C4.23857625,-1.69088438e-16 2,2.23857625 2,5 Z" id="Shape"></path>
                <path d="M12.0482395,10.1882528 C11.6748014,9.92837797 11.1413185,9.95200295 10.7945546,10.2591278 C9.94098182,11.0151274 8.76731932,11.4876272 7.46028606,11.4876272 C6.1532528,11.4876272 4.9795903,11.0151274 4.12601758,10.2591278 C3.77925366,9.95200296 3.2457707,9.90475298 2.87233263,10.1882528 C1.43192863,11.2750023 0.364962719,12.6688766 0.0181987983,14.5825007 C-0.115171937,15.3621253 0.498333454,16 1.40525448,16 L13.5953401,16 C14.475587,16 15.1157665,15.3621253 14.9823958,14.5825007 C14.6089577,12.6688766 13.5419918,11.2750023 12.0482395,10.1882528 Z" id="Shape"></path>
            </g>
        </g>
    </g>
</svg>